<?xml version="1.0" standalone="no"?>
<!DOCTYPE svg PUBLIC "-//W3C//DTD SVG 20010904//EN"
 "http://www.w3.org/TR/2001/REC-SVG-20010904/DTD/svg10.dtd">
<svg version="1.0" xmlns="http://www.w3.org/2000/svg"
 width="1920.000000pt" height="1920.000000pt" viewBox="0 0 1920.000000 1920.000000"
 preserveAspectRatio="xMidYMid meet">

<g transform="translate(0.000000,1920.000000) scale(0.100000,-0.100000)"
fill="#000000" stroke="none">
<path d="M12605 14355 c-60 -12 -137 -32 -170 -43 -111 -37 -339 -130 -430
-174 -177 -87 -492 -251 -580 -303 -182 -106 -752 -401 -1545 -801 -234 -118
-445 -225 -470 -238 -25 -13 -142 -75 -260 -136 -337 -176 -730 -392 -730
-401 0 -5 22 -48 50 -95 51 -90 84 -175 97 -256 l8 -47 55 33 c30 18 120 70
200 116 80 46 159 94 175 105 17 12 50 33 75 46 25 13 106 58 180 100 296 168
641 359 755 419 66 34 131 70 145 80 31 20 168 95 270 146 41 20 125 65 186
100 61 34 176 95 255 134 79 40 174 90 210 111 113 65 1096 561 1294 653 138
64 156 65 190 12 15 -23 14 -38 -19 -238 -71 -426 -66 -534 31 -720 61 -117
139 -188 231 -209 83 -19 258 43 377 134 142 107 254 302 295 510 12 59 16
333 6 399 -22 152 -108 312 -226 421 -72 67 -215 140 -304 156 -96 17 -230 12
-351 -14z"/>
<path d="M13560 12715 c0 -6 14 -55 30 -110 17 -55 33 -113 35 -130 2 -16 13
-66 24 -110 119 -480 171 -887 171 -1349 0 -311 -22 -574 -76 -891 -30 -178
-121 -577 -168 -736 -35 -120 -142 -433 -185 -544 -82 -210 -121 -306 -156
-380 -23 -49 -52 -117 -66 -149 -35 -86 -137 -296 -158 -325 -10 -14 -53 -87
-96 -161 -204 -353 -563 -848 -909 -1255 -143 -168 -522 -549 -661 -664 -247
-205 -521 -370 -720 -434 -119 -39 -305 -62 -305 -38 0 8 84 27 101 23 14 -3
138 37 194 63 33 15 97 49 143 77 90 54 85 43 61 139 -10 41 -74 175 -87 183
-5 3 -72 -21 -148 -54 -323 -137 -752 -294 -833 -305 -14 -2 -73 -18 -130 -35
-248 -74 -618 -151 -901 -186 -130 -16 -668 -25 -955 -16 -377 12 -942 163
-1332 357 -79 38 -143 69 -143 66 0 -2 26 -35 57 -74 107 -131 282 -265 509
-391 55 -31 105 -56 110 -56 6 0 41 -15 80 -34 130 -64 483 -188 569 -201 16
-2 66 -13 111 -24 220 -54 548 -107 819 -133 181 -17 776 -17 950 0 257 25
693 99 783 133 14 5 41 12 61 15 109 16 502 167 688 263 161 83 413 232 505
298 419 302 758 620 1053 988 53 66 102 125 109 130 34 27 256 346 376 540 51
83 102 164 115 180 12 17 40 64 62 105 22 41 63 116 90 165 98 178 192 363
263 520 40 88 81 180 93 205 19 43 127 347 169 475 44 138 107 364 111 405 3
25 19 108 35 185 84 391 107 626 107 1085 0 391 -7 490 -55 780 -43 254 -140
645 -189 754 -10 22 -28 66 -39 96 -59 156 -128 313 -184 413 -69 125 -88 156
-88 142z"/>
<path d="M8265 12160 c-17 -11 -42 -39 -55 -62 -22 -38 -25 -54 -23 -143 1
-55 8 -138 17 -184 13 -75 13 -87 -1 -122 -8 -22 -33 -54 -54 -72 -37 -32
-147 -92 -154 -85 -2 2 20 22 49 45 84 65 109 104 114 178 5 75 -12 137 -75
282 -52 119 -75 147 -136 164 -82 23 -253 -30 -364 -114 -104 -78 -110 -201
-20 -403 31 -70 50 -118 52 -134 0 -3 3 -9 7 -15 3 -5 6 -59 7 -120 2 -165
-29 -255 -125 -355 -53 -56 -53 -56 -43 -96 17 -59 60 -140 122 -226 69 -96
187 -238 199 -238 4 0 8 -7 8 -15 0 -9 6 -18 14 -21 8 -3 26 -24 41 -46 14
-22 51 -66 80 -98 l54 -58 6 66 c19 203 72 434 145 632 16 44 25 80 21 80 -5
0 -28 -7 -52 -16 -31 -11 -60 -13 -97 -9 -55 7 -61 16 -16 23 44 5 182 59 247
96 203 113 329 220 344 292 14 69 7 234 -16 351 -20 105 -85 313 -116 374 -35
67 -117 90 -180 49z"/>
<path d="M11339 12062 c-36 -10 -91 -33 -123 -52 -111 -67 -229 -183 -243
-238 -13 -54 43 -155 165 -299 35 -41 62 -77 59 -79 -11 -11 -221 233 -264
307 -25 44 -52 79 -60 79 -40 0 -143 -91 -143 -125 0 -9 11 -43 25 -76 29 -68
33 -56 -57 -193 -125 -190 -173 -295 -194 -426 -30 -182 -13 -352 50 -506 35
-86 107 -210 145 -251 12 -12 17 -24 12 -27 -10 -6 -36 23 -96 107 -25 34 -49
67 -54 73 -19 23 -55 101 -91 198 l-37 99 -6 -179 c-3 -98 -10 -206 -17 -239
-14 -77 -56 -187 -92 -246 l-28 -46 -163 -6 c-185 -6 -339 -34 -472 -87 -90
-36 -292 -139 -540 -276 -165 -90 -305 -151 -366 -158 -68 -7 -27 -11 124 -12
180 -1 287 -16 462 -66 61 -17 119 -32 130 -33 11 -2 61 -14 110 -28 50 -14
107 -29 127 -32 22 -4 35 -11 31 -18 -9 -14 -154 -3 -348 27 -88 14 -200 27
-250 31 -263 18 -394 45 -522 110 -115 58 -195 134 -322 310 -52 72 -102 137
-110 146 -9 9 -30 34 -47 55 -17 22 -96 118 -175 214 -359 439 -501 625 -549
719 -50 98 -35 213 40 306 22 28 52 75 67 105 23 48 26 66 26 145 -2 161 -71
367 -146 437 -57 52 -102 69 -201 75 -188 11 -432 -64 -575 -177 -80 -63 -91
-88 -91 -200 0 -132 28 -239 97 -379 52 -106 65 -123 167 -226 61 -61 126
-120 144 -131 28 -16 36 -30 58 -104 14 -47 52 -165 85 -263 33 -98 62 -185
64 -195 5 -28 61 -165 106 -259 92 -194 198 -404 219 -430 11 -16 57 -82 100
-148 224 -337 486 -591 810 -782 202 -118 529 -246 690 -268 25 -4 64 -11 87
-16 187 -41 491 -64 743 -56 175 6 410 24 418 32 2 2 -10 54 -27 117 -57 214
-101 490 -117 729 -4 74 -3 108 4 113 10 6 164 21 402 40 138 11 173 16 247
35 43 11 79 18 81 17 7 -7 -154 -64 -238 -85 -47 -11 -155 -32 -240 -47 -85
-15 -157 -28 -159 -30 -2 -2 -3 -57 -2 -121 2 -114 26 -283 57 -408 22 -85
102 -353 119 -397 8 -20 11 -39 6 -42 -4 -3 -37 -8 -72 -10 -35 -3 -125 -12
-199 -21 -280 -34 -652 -36 -855 -5 -38 6 -90 12 -115 15 -25 2 -47 4 -50 6
-3 1 -8 1 -12 0 -14 -2 -206 51 -307 85 -196 65 -531 241 -642 338 -20 17 -57
47 -83 66 -26 19 -59 47 -74 61 -15 14 -60 56 -99 94 l-73 68 -53 -41 c-29
-23 -73 -48 -96 -57 -49 -17 -126 -20 -116 -5 3 6 22 10 41 10 25 0 44 9 75
37 42 38 82 105 77 128 -2 7 -47 59 -101 115 -145 149 -205 236 -338 478 -37
68 -69 120 -72 115 -3 -5 -18 -67 -32 -138 -15 -72 -45 -197 -67 -280 -22 -82
-42 -160 -44 -171 -2 -12 -15 -47 -29 -78 -14 -32 -41 -108 -60 -170 -91 -303
-94 -540 -8 -709 93 -184 336 -276 628 -238 257 34 609 146 924 293 57 26 106
46 108 44 3 -2 11 -101 19 -220 18 -272 36 -450 69 -662 15 -91 28 -182 31
-203 2 -20 15 -81 28 -136 75 -310 191 -595 321 -787 39 -59 37 -79 -3 -31
-15 17 -45 52 -67 78 -77 89 -153 224 -214 379 -32 83 -61 160 -64 171 -12 42
5 -202 18 -274 8 -42 47 -209 87 -372 l73 -297 70 -17 c39 -9 121 -19 183 -22
61 -3 112 -9 112 -13 0 -3 -80 -15 -177 -25 -136 -14 -272 -19 -578 -20 -220
-1 -403 0 -407 2 -4 2 -45 6 -90 8 -253 14 -632 93 -913 191 -71 25 -138 47
-148 49 -31 7 -228 96 -287 130 -30 18 -107 62 -171 99 -450 257 -839 697
-1064 1206 -90 203 -185 475 -201 575 -3 22 -14 76 -24 120 -26 116 -57 300
-76 455 -30 251 -29 980 2 1150 4 22 3 22 -5 5 -9 -20 -83 -396 -101 -516 -44
-294 -63 -768 -41 -1034 28 -336 99 -675 203 -965 41 -114 182 -405 247 -510
92 -149 193 -282 288 -380 50 -52 115 -121 143 -152 29 -32 56 -58 61 -58 9 0
29 -16 113 -91 95 -84 254 -184 481 -304 228 -120 629 -246 940 -295 211 -33
594 -50 897 -39 119 5 229 11 244 13 14 3 52 6 83 7 202 5 654 96 996 200 72
21 162 49 200 60 178 54 626 255 848 380 51 29 112 63 137 77 45 25 121 75
150 99 8 6 65 47 125 89 330 229 626 516 846 819 167 230 234 343 339 575 59
130 112 270 104 270 -4 0 -1 7 6 15 7 8 10 15 7 15 -3 0 1 21 9 47 8 25 14 51
14 56 0 6 -33 -43 -74 -109 -350 -564 -832 -1118 -1256 -1445 -112 -86 -330
-237 -405 -280 -102 -59 -384 -190 -495 -229 -90 -32 -329 -91 -364 -89 -6 0
36 17 94 38 58 21 146 57 195 80 50 24 97 44 105 46 24 5 219 114 292 162 l67
45 0 114 c1 123 27 308 62 434 42 149 78 259 98 299 12 22 21 43 21 46 0 13
-105 -52 -139 -85 -90 -88 -195 -214 -246 -296 -68 -107 -164 -299 -204 -409
-35 -92 -41 -70 -15 53 20 98 63 210 121 315 110 199 211 325 478 597 195 198
343 364 455 510 60 77 64 82 101 124 34 39 218 285 254 340 15 22 -3 16 -147
-53 -201 -97 -243 -112 -388 -145 -100 -22 -141 -25 -323 -27 -114 -1 -209 0
-212 3 -3 3 35 8 84 12 132 10 348 50 491 92 69 20 132 37 141 39 85 17 377
177 397 218 23 48 42 177 42 289 0 121 -16 201 -56 280 -36 70 -157 190 -229
226 -82 41 -84 41 -245 62 -128 16 -156 29 -181 85 -24 54 -33 151 -22 225 7
47 6 57 -10 70 -16 14 -14 15 30 12 45 -3 53 0 118 49 88 67 226 200 302 290
72 86 233 310 233 324 0 6 -26 21 -56 34 -173 75 -416 313 -534 524 -17 31
-28 57 -22 57 5 0 52 -48 105 -107 141 -158 262 -265 430 -382 109 -75 146
-95 245 -126 115 -36 219 -49 303 -36 177 28 286 102 330 225 35 100 22 189
-40 286 -54 86 -213 236 -328 310 l-100 65 -6 165 c-3 91 -8 181 -11 200 -13
68 -73 174 -131 229 -60 57 -175 117 -240 126 -214 29 -256 30 -346 7z"/>
<path d="M5925 10980 c-274 -136 -505 -256 -512 -266 -21 -29 -16 -49 49 -179
52 -104 67 -126 91 -135 28 -9 59 4 391 169 199 98 423 208 499 245 148 71
177 93 177 130 0 27 -102 247 -126 270 -8 9 -27 16 -42 16 -15 -1 -252 -113
-527 -250z"/>
</g>
</svg>
